PathFileType	4	(X/Y/Z)	Patient4_TMGait_0pt4_01_left_26.trc.trc
DataRate	CameraRate	NumFrames	NumMarkers	Units	OrigDataRate	OrigDataStartFrame	OrigNumFrames
76.502732240437	76.502732240437	4	33	mm	76.502732240437	53	       141
Frame#	Time	Sacral			L.Shoulder			Chest			R.Shoulder			Neck			R.ASIS			L.ASIS			R.Thigh.Superior			R.Thigh.Lateral			R.Thigh.Inferior			R.Patella			L.Thigh.Superior			L.Thigh.Lateral			L.Thigh.Inferior			L.Patella			L.Shank.Superior			L.Shank.Lateral			L.Shank.Inferior			R.Shank.Superior			R.Shank.Lateral			R.Shank.Inferior			R.Heel			R.Midfoot.Superior			R.Midfoot.Lateral			R.Toe			L.Heel			L.Midfoot.Lateral			L.Midfoot.Superior			L.Toe			L.Elbow			L.Wrist			R.Elbow			R.Wrist			
		X1	Y1	Z1	X2	Y2	Z2	X3	Y3	Z3	X4	Y4	Z4	X5	Y5	Z5	X6	Y6	Z6	X7	Y7	Z7	X8	Y8	Z8	X9	Y9	Z9	X10	Y10	Z10	X11	Y11	Z11	X12	Y12	Z12	X13	Y13	Z13	X14	Y14	Z14	X15	Y15	Z15	X16	Y16	Z16	X17	Y17	Z17	X18	Y18	Z18	X19	Y19	Z19	X20	Y20	Z20	X21	Y21	Z21	X22	Y22	Z22	X23	Y23	Z23	X24	Y24	Z24	X25	Y25	Z25	X26	Y26	Z26	X27	Y27	Z27	X28	Y28	Z28	X29	Y29	Z29	X30	Y30	Z30	X31	Y31	Z31	X32	Y32	Z32	X33	Y33	Z33	

53	32.179714285714	869.049026959311	1003.090127342332	422.132893753847	1016.188364599978	1434.062975619429	219.994130027134	1126.180547486687	1379.595392708535	381.378175750015	1040.990859866915	1454.671163134393	554.186990427714	1000.343349519451	1500.895730405726	376.392065280086	1103.268242504758	954.850974523661	535.472751656640	1084.257387131306	969.186145418173	261.487045303494	1182.233618097654	773.241454168578	510.419637390043	1136.990303739168	655.243255843367	589.486360935361	1223.935741446864	610.494194204753	510.419294824088	1239.378431416158	500.047317390749	536.688634325559	1130.271265195346	751.272355451799	293.037011507036	1034.346873056214	637.310218376594	236.479252381869	1115.600971519821	557.490072782407	298.608815546437	1112.223815659022	489.258905955032	310.313478917684	1085.782199221939	417.251369465202	303.934630889748	994.444596305344	303.320930275467	254.537295728840	1043.036875710499	192.747959939838	328.942194291189	1165.895412545853	425.333595120999	547.456108049078	1048.799277637920	382.943375236329	613.937119803953	1037.245208118649	272.253463967846	567.763429653232	838.820214870006	195.958856898567	549.439649049302	1012.995649133926	154.975518501652	585.787250077836	905.425912190574	144.881712710010	623.084356811735	1089.142956419674	50.331943150136	613.491877305281	913.000322144814	38.778832760155	373.061213102652	987.237255685699	35.087236407807	292.616837037543	1070.194080332535	96.036440155518	319.798505451452	1199.197598949941	44.663361381809	292.566820485715	1039.446669264572	1085.785861680302	94.006704955710	1200.030251012656	877.145545184699	99.832228481287	1007.247359617411	1111.920904634339	684.447941856028	1091.727159212989	864.012957004098	684.071157105603	
54	32.192785714286	868.621569744248	1003.153595581952	420.600870956426	1017.442432389685	1434.578149099094	219.629534247172	1126.075338441140	1379.801457258003	381.840355227233	1039.507646218160	1454.439132394500	554.113535580557	1000.261266882047	1501.137626621236	376.067505057892	1102.298412298698	955.565876798267	535.256879848105	1084.655912188406	969.468614286463	261.227902863011	1183.421089084470	775.817851257248	509.974567535064	1140.085509666259	657.497888221330	589.485542695058	1227.373719357959	613.818270724492	510.146068713219	1244.953583433384	503.944079999274	536.588420791056	1129.003295838127	750.644668226765	293.305610528585	1031.778980358279	637.420949637103	236.029367563530	1111.716966075229	556.875641567518	298.705756808804	1107.561057751083	488.848430353730	310.453565357389	1081.198903935645	417.069587446098	303.901673638353	989.860409321527	303.257511126668	254.420824639579	1037.955257822518	192.614348399142	328.962522303725	1173.110391625324	427.986138351489	547.527361463611	1057.363514459407	382.611296771107	614.298325230565	1048.508027083962	271.660662386364	568.129301116157	852.112903927737	190.322592533617	550.204427763253	1027.433054334474	154.013077174983	586.746219883433	920.125900946511	141.023077455080	623.808733361085	1106.025279121139	51.135056212554	613.934469310261	907.709606242869	38.785475491133	373.034104083873	981.981154137795	35.086587806595	292.596253314054	1064.955599971947	95.991512380923	319.792862500642	1193.964527776666	44.557298443484	292.557316476482	1045.297785807311	1087.307994652600	92.206929202443	1214.242645287578	885.415947746767	99.815246764538	998.188512380607	1112.945947581947	684.645918071626	1070.650051597791	861.271438462327	689.425894556090	
55	32.205857142857	868.160299188016	1003.146218699903	419.203754954292	1018.854826274073	1435.006100368965	219.410979067383	1126.067091078910	1379.867405772305	382.453197122212	1038.116863934113	1454.138212242694	554.152025140218	1000.321063547928	1501.307383014728	375.858933067247	1101.243838041367	956.188588374754	535.238436799693	1084.992550835306	969.647422583877	261.178175989774	1184.316007822435	778.218019713818	509.668548807277	1142.791220230457	659.577173360013	589.544340612250	1230.357421507346	616.938614645779	509.929383172958	1250.050353094944	507.751407557923	536.493553223757	1127.692165087453	749.995488428888	293.843799601674	1029.284145579843	637.510028918496	235.693710641950	1107.824895637523	556.272567211556	298.984657828816	1102.897310168149	488.447202714788	310.745016549655	1076.621745040849	416.886371099261	303.987594886078	985.330737273194	303.196849527982	254.356765772582	1032.890992453111	192.477640119517	329.031844683418	1180.017788678548	430.509342425083	547.617043888010	1065.854885431181	381.851104882670	614.745573994817	1059.980345251970	270.683794357472	568.542302634483	865.905911463386	183.820068595594	551.136020691587	1042.401978463020	152.654044577118	587.684531834657	935.484785826101	136.510367413473	624.650652993690	1123.729800537034	51.841885868573	614.344660603201	902.424553902868	38.790847732926	373.010517782221	976.725532616407	35.087709002060	292.581771883873	1059.722221042181	95.947294539375	319.805361296263	1188.735701428318	44.437255809589	292.559283940646	1050.877312912414	1088.804897990393	90.593088241770	1228.143209656823	894.250285358720	99.963472880717	989.253104871136	1114.126994132491	684.964974359432	1050.027082772142	859.564985948188	694.366132002179	
56	32.218928571429	867.671428709523	1003.067016384693	417.948391555029	1020.401785528926	1435.336876025098	219.347149784618	1126.147697513038	1379.798631015299	383.215271332886	1036.815925673246	1453.775520214205	554.303968149165	1000.511944124260	1501.400951770209	375.768600647218	1100.117736390398	956.706883085527	535.421936666126	1085.259648584311	969.710715431871	261.341158009314	1184.916600319464	780.415476627516	509.492317423835	1145.097399319073	661.441908787707	589.650842962343	1232.890529918364	619.814018947265	509.771641038727	1254.649064368860	511.416550349709	536.401057828988	1126.313863691627	749.316771034493	294.608982931686	1026.860264864779	637.575846204467	235.466540507740	1103.942045543080	555.680643402005	299.414112587739	1098.258564460578	488.053222306199	311.161730165387	1072.067863051561	416.699553188607	304.174407651321	980.856358698638	303.141969606650	254.329487816527	1027.849042674001	192.341586671925	329.139466979126	1186.574565513643	432.878081564366	547.722158543698	1074.210190745626	380.724864078419	615.252725668912	1071.549031393223	269.409343410713	568.993710516003	880.091082109816	176.657160480279	552.183232858029	1057.711545818256	151.004839624109	588.561826454676	951.331975071063	131.537791401523	625.579924899347	1141.992457783696	52.563583193260	614.754488741179	897.147055151693	38.796562799231	372.987133000892	971.470604968559	35.089947389034	292.571246478223	1054.494135578555	95.905169396641	319.831607327723	1183.510758208731	44.305118853224	292.571581085241	1056.219676337546	1090.252429337631	89.171085604473	1241.647087055216	903.579708566765	100.278560016687	980.466387589331	1115.456478240116	685.381609600600	1030.021186119511	858.797880157900	698.874194793605	
